<svg id="Object" xmlns="http://www.w3.org/2000/svg" viewBox="0 0 679.78 639.06"><title>consumersprotection</title><path d="M-2.29,640.22V596.74c0-88,149.67-147.86,284.09-113.06q3,.78,6.08,1.61C483.53,538.54,436.11,272.18,590,272.6h89.76V640.22Z" fill="#ffd894"/><path d="M341.79,477.21c-52.36.18-262.26,7.57-225.71,13.95s64.8,8,28.66,12-94.28,3.19-70.19,13.08c26.58,10.92,470.73,29.74,397.08,5.18s129.18-15.32,87.54-26.44S354.64,477.17,341.79,477.21Z" fill="#e8efef"/><path d="M557.74,444.18l-31.45-8.93s-3.52-6.23,5.24-9.76,10.47-10.64,4.9-13.66-3.78-12.51,5.24-13.13,5.28-23.05,18.78-20.77-3.12,19.13,3.95,23.79,3.53,13.8-4.78,14-6.56,10.89-1,15.37C562.93,434.63,557.74,444.18,557.74,444.18Z" fill="#f9bb41"/><path d="M557.94,449.58c-6.75-5.06-8.51-18.07,5.61-23.26,12.08-4.44,3.53-11.83,12.67-20.64,8-7.69,10.38,4.24,20.77-7,6-6.43,9.35-4.45,1.66,4.78s.32,11.44-5,20.56c-5.19,8.93-15.39-2.57-16.61,13.5C576.16,449.19,563.76,453.94,557.94,449.58Z" fill="#ffcf50"/><path d="M525.17,439.25c8.33-1.33,16-12,5.89-23.19-8.61-9.57,2.4-12.11-1.57-24.17-3.46-10.52-11.16-1.1-15.11-15.86-2.27-8.46-6.19-8.3-3.7,3.45s-5.62,10-5.18,20.51c.43,10.32,14.81,4.91,8.4,19.69C509.24,430.41,518,440.39,525.17,439.25Z" fill="#ffcf50"/><path d="M535.77,476.14c4.25-7.69,52.71-63.83,53.11-64.31,0,0-50.92,55.2-55.29,63.11Z" fill="#2a425b"/><path d="M529.28,480.22c.75-7.79,24.78-87.3,25-88,0,0-26.7,79.7-27.47,87.74Z" fill="#2a425b"/><path d="M525.53,479.06c1.67-10.22-4.86-84.12-4.86-84.12.06.67,4,73.82,2.4,83.72Z" fill="#2a425b"/><path d="M129.12,439.21c-8.33-1.33-16-12-5.89-23.19,8.61-9.57-2.4-12.11,1.57-24.17,3.46-10.52,11.16-1.1,15.11-15.86,2.27-8.46,6.19-8.3,3.7,3.45s5.62,10,5.18,20.51c-.43,10.32-14.81,4.91-8.4,19.69C145.05,430.37,136.3,440.35,129.12,439.21Z" fill="#fba319"/><path d="M96.56,444.14,128,435.21s3.52-6.23-5.24-9.76-10.47-10.64-4.9-13.66,3.78-12.51-5.24-13.13-5.28-23.05-18.78-20.77S97,397,89.91,401.68s-3.53,13.8,4.78,14,6.56,10.89,1,15.37C91.37,434.59,96.56,444.14,96.56,444.14Z" fill="#168e85"/><path d="M96.35,449.54c6.75-5.06,8.51-18.07-5.61-23.26-12.08-4.44-3.53-11.83-12.67-20.64-8-7.69-10.38,4.24-20.77-7-6-6.43-9.35-4.45-1.66,4.78s-.32,11.44,5,20.56c5.19,8.93,15.39-2.57,16.61,13.5C78.13,449.15,90.54,453.9,96.35,449.54Z" fill="#ffcf50"/><path d="M118.52,476.1c-4.25-7.69-52.71-63.83-53.11-64.31,0,0,50.92,55.2,55.29,63.11Z" fill="#2a425b"/><path d="M125,480.19c-.75-7.79-24.78-87.3-25-88,0,0,26.7,79.7,27.47,87.74Z" fill="#2a425b"/><path d="M128.77,479c-1.67-10.22,4.86-84.12,4.86-84.12-.06.67-4,73.82-2.4,83.72Z" fill="#2a425b"/><path d="M125.27,492.32S105.9,462,111.93,458.26s7.62,15.58,12.64,15-5.27-18.9.71-21.81,9.5,39.87,9.5,39.87S131.16,495.44,125.27,492.32Z" fill="#168e85"/><path d="M130.86,493.36s-6.41-41.82,0-42.1,1.42,14.68,5,17,3.84-10.9,6.7-9.35-4.41,32.61-4.41,32.61A8,8,0,0,1,130.86,493.36Z" fill="#0c6d6a"/><path d="M529,492.36S548.39,462,542.37,458.3s-7.62,15.58-12.64,15,5.27-18.9-.71-21.81-9.5,39.87-9.5,39.87S523.13,495.47,529,492.36Z" fill="#137f7f"/><path d="M523.44,493.4s6.41-41.82,0-42.1-1.42,14.68-5,17-3.84-10.9-6.7-9.35,4.41,32.61,4.41,32.61A8,8,0,0,0,523.44,493.4Z" fill="#0c6d6a"/><path d="M199.57,523.28s-7.89-25.52-2.49-27.82,3.32,15.74,6.65,15,.46-16.91,4.8-16.29,0,29.09,0,29.09S205.8,527.24,199.57,523.28Z" fill="#ffcf50"/><path d="M138.09,361.9s-15.37.83-12.46,17,19.62,105.77,34.11,101.9Z" fill="#ffcf50"/><path d="M134.77,356.08s-24.09-1.66-19.94,20.35,6.12,39,17.21,34.67c0,0-11.37-41.53,1.29-48.07Z" fill="#f9bb41"/><path d="M118.69,396.22s-5.74.74-5.17,4.24c1.11,6.74,2.42,8,8.74,5.54Z" fill="#2a425b"/><path d="M563.12,211.33,528.75,379.41,508.08,480.52a16.31,16.31,0,0,1-16,13H175.66a16.31,16.31,0,0,1-15.92-12.74L99.45,211.95A33.4,33.4,0,0,1,132,171.25H530.4A33.4,33.4,0,0,1,563.12,211.33Z" fill="#137f7f"/><path d="M211.27,493.57H175.66a16.31,16.31,0,0,1-15.92-12.74L99.45,211.95A33.4,33.4,0,0,1,132,171.25h47.91l-53.07,29.07s-14.12-1.66-10,21.6,49,252.54,59,260C183.47,487.62,202.54,491.86,211.27,493.57Z" fill="#0c6d6a"/><path d="M294.41,493.57,281.9,251.92a24.57,24.57,0,0,1,24.54-25.84h73.73a24.57,24.57,0,0,1,24.55,25.53l-9.52,242Z" fill="#daedec"/><path d="M542.11,167.44l-1.24,5.48-10.5,46.57a22.29,22.29,0,0,1-21.75,17.39H154.19a22.29,22.29,0,0,1-21.83-17.79l-10.68-51.87A12.54,12.54,0,0,1,134,152.15H529.88A12.53,12.53,0,0,1,542.11,167.44Z" fill="#2a425b"/><path d="M134.79,174.17l10,38.65c2,7.72,10.55,13.26,20.47,13.26H497.61c9.77,0,18.24-5.38,20.39-13l11-38.78c1.66-5.84-3.93-11.4-11.47-11.4H146.3C138.85,162.94,133.28,168.37,134.79,174.17Z" fill="#ffcf50"/><rect x="170.08" y="139.68" width="39.87" height="12.46" fill="#f9bb41"/><rect x="459.99" y="139.68" width="39.87" height="12.46" fill="#f9bb41"/><path d="M465,212H204.9A24.85,24.85,0,0,1,180,187.1V139.68H200v45.1a7.24,7.24,0,0,0,7.24,7.24H462.73a7.24,7.24,0,0,0,7.24-7.24v-45.1H489.9V187.1A24.85,24.85,0,0,1,465,212Z" fill="#fba319"/><path d="M489.9,152.15H470V102.91a4.76,4.76,0,0,0-4.76-4.76H204.75a4.76,4.76,0,0,0-4.76,4.76v49.23H180V97.66A19.45,19.45,0,0,1,199.5,78.21h271A19.45,19.45,0,0,1,489.9,97.66Z" fill="#fba319"/><path d="M179.86,256h4.52c3.11,0,5.63,2.05,5.63,4.59v24.06c0,2.53-2.52,4.59-5.63,4.59h-4.52c-3.11,0-5.63-2.05-5.63-4.59V260.57C174.23,258,176.75,256,179.86,256Z" fill="#ffcf50"/><rect x="170.08" y="215.28" width="24.09" height="62.3" rx="8.6" ry="8.6" fill="#fba319"/><path d="M179.86,221.92h4.52c3.11,0,5.63,3.13,5.63,7v36.69c0,3.86-2.52,7-5.63,7h-4.52c-3.11,0-5.63-3.13-5.63-7V228.92C174.23,225.06,176.75,221.92,179.86,221.92Z" fill="#f9bb41"/><path d="M155.66,325.76H259.38a8.44,8.44,0,0,1,8.44,8.44v93.88a8.44,8.44,0,0,1-8.44,8.44H178.8a8.44,8.44,0,0,1-8.24-6.63l-21.19-96.31A6.44,6.44,0,0,1,155.66,325.76Z" fill="#0c6d6a"/><path d="M162.08,332.49h91.13a7.42,7.42,0,0,1,7.42,7.42v82.48a7.42,7.42,0,0,1-7.42,7.42h-70.8a7.42,7.42,0,0,1-7.24-5.82l-18.62-84.62A5.66,5.66,0,0,1,162.08,332.49Z" fill="#ffcf50"/><path d="M447.27,388.34h56.86a5.36,5.36,0,0,1,5.25,6.41l-2.59,12.94a6.93,6.93,0,0,1-6.8,5.57H447.27a6.93,6.93,0,0,1-6.93-6.93V395.28A6.93,6.93,0,0,1,447.27,388.34Z" fill="#0c6d6a"/><path d="M418.75,417.42h81.39a5.34,5.34,0,0,1,5.26,6.28l-2.3,12.92a6.93,6.93,0,0,1-6.83,5.72H418.75a6.93,6.93,0,0,1-6.93-6.93V424.35A6.93,6.93,0,0,1,418.75,417.42Z" fill="#0c6d6a"/><path d="M548.38,283.4s13,4.57,10.47,18.69-11.9,61.47-26.1,57.73C532.75,359.82,535.42,317.87,548.38,283.4Z" fill="#0c6d6a"/><path d="M563.12,211.33,528.75,379.41a72.74,72.74,0,0,1-14.58,1.45c-62,0-90.38-74-103.34-144h97.79a22.29,22.29,0,0,0,21.75-17.39l10.5-46.57A33.42,33.42,0,0,1,563.12,211.33Z" fill="#0c6d6a"/><path d="M409.1,107H637.53S641,373.38,523.31,373.38,409.1,107,409.1,107Z" fill="#f9bb41"/><path d="M413.25,111.86H633.38s3.32,256.69-110.07,256.69S413.25,111.86,413.25,111.86Z" fill="#ffcf50"/><path d="M610.15,226.91c-1.55,8.82-3.37,17.76-5.55,26.58-11.2,45.46-31.43,87.87-68,96.15a61.49,61.49,0,0,1-26.58,0c-36.56-8.28-56.8-50.7-68-96.15-2.18-8.82-4-17.76-5.55-26.58a593.6,593.6,0,0,1-8.27-97.61H618.42A593.6,593.6,0,0,1,610.15,226.91Z" fill="#f9bb41"/><path d="M610.15,226.91c-1.55,8.82-3.37,17.76-5.55,26.58h-68v96.15a61.49,61.49,0,0,1-26.58,0V253.49H442c-2.18-8.82-4-17.76-5.55-26.58H510V129.3h26.58v97.61Z" fill="#137f7f"/><path d="M357.82,354.53s4.36,40.39,17,43.4c0,0,4.47,8.72-4.15,11.84L349.3,355.46Z" fill="#0c6d6a"/><path d="M317.39,434s5,46.94,5.4,49.57,6.78,0,6.78,0l4-54.83Z" fill="#f7bcb7"/><path d="M361.67,434s-5,46.94-5.4,49.57-6.78,0-6.78,0l-4-54.83Z" fill="#f7bcb7"/><path d="M352.35,281.6s.35-2.22,1.59-1.8.55,6.78-1.32,7.27Z" fill="#f7bcb7"/><path d="M330.06,284.64s-1.8-2-3-1.52.9,6.92,3.81,6.37Z" fill="#f7bcb7"/><path d="M373.33,418s5.95,5.81,0,9.28-4.71,5.53-9.42,9.55c-4.54,3.87-10.69,3.23-16.23,1.69-6-1.68-11.31-4.42-13.12-3.63a43.39,43.39,0,0,1-6.13,2.2c-16,4.36-20.45-6.49-20.45-6.49l3-8.72c-7.61-7.34-2.16-16.14-2-16.47h0c-1.73-.8-2.52-2.55-2.77-4.63-.63-5.08,1.94-12.12,1.94-12.12,18-13.29,16.88-37.12,16.88-37.12H357c2.22,47.08,19.94,57.59,19.94,57.59a5.55,5.55,0,0,1,.09,4.19A11.3,11.3,0,0,1,373.33,418Z" fill="#137f7f"/><path d="M325.49,378.24c-2.56,12.18-16.41,27.13-16.41,27.13-1.73-.8-2.52-2.55-2.77-4.63C319.41,393.8,325.49,378.24,325.49,378.24Z" fill="#0c6d6a"/><path d="M321.32,307.33s-2.34.64-3.79,5.28-10.11,33.85-10.38,36.76.14,29.56,0,31.77-4.52,8.74-4.1,10.92,3.49,5.38,4.38,5.38,4.15-1.73,4.71-3.18-2-6.82-.28-7,2.28,2.94,3.32,2.67-2.08-7.51-1.66-9.73S316,351.44,317,349.1s4.33-22.76,5.28-23.32S322.75,308.28,321.32,307.33Z" fill="#f7bcb7"/><path d="M362.6,307.33s2.34.64,3.79,5.28,10.11,33.85,10.38,36.76-.14,29.56,0,31.77,4.52,8.74,4.1,10.92-2.27,7.06-3.16,7.06-4.47-3.44-5-4.9,1.11-6.78-.62-7-1.8,2.08-2.84,1.8,1.59-6.65,1.18-8.86-2.5-28.74-3.46-31.07-4.33-22.76-5.28-23.32S361.17,308.28,362.6,307.33Z" fill="#f7bcb7"/><rect x="307.7" y="408.83" width="9.69" height="36.83" rx="3" ry="3" fill="#2a425b"/><path d="M323.34,334.35c-.14-.42-3.46-26.17-2.08-27.69s14.58-5.81,22-5.68,18.95,3.6,19.64,4.71-4.57,29.91-4.57,29.91Z" fill="#79ccca"/><path d="M310.7,408.83V407.1a.86.86,0,0,1,.86-.86h1.78a.86.86,0,0,1,.86.86v1.73Z" fill="#ffcf50"/><path d="M313.28,406.24h-1.66V388.14a.83.83,0,0,1,.83-.83h0a.83.83,0,0,1,.83.83Z" fill="#f9bb41"/><path d="M331.22,479.59s-.31,5.19-.65,11c-.44,7.38-.93,15.79-.93,16.1h-9.89a13.8,13.8,0,0,1-2-.13h0a6.74,6.74,0,0,1-2.92-1,18.61,18.61,0,0,1,0-3.88c.21-2.49,3.46-3.74,3.46-3.74.55-1.17,2.91-17.16,2.91-17.16C327.35,473.49,331.22,479.59,331.22,479.59Z" fill="#ffcf50"/><path d="M330.57,490.62c-.44,7.38-.93,15.79-.93,16.1h-9.89a13.8,13.8,0,0,1-2-.13h0c.06-.45,2.17-16.68,10-16.61A6.37,6.37,0,0,1,330.57,490.62Z" fill="#f9bb41"/><path d="M324.66,492.74a4.54,4.54,0,0,1,4.85-.77l-.55,14.75s-1.6,2-4.79,0Z" fill="#2a425b"/><path d="M347.84,479.59s.31,5.19.65,11c.44,7.38.93,15.79.93,16.1h9.89a13.8,13.8,0,0,0,2-.13h0a6.74,6.74,0,0,0,2.92-1,18.61,18.61,0,0,0,0-3.88c-.21-2.49-3.46-3.74-3.46-3.74-.55-1.17-2.91-17.16-2.91-17.16C351.7,473.49,347.84,479.59,347.84,479.59Z" fill="#ffcf50"/><path d="M348.49,490.62c.44,7.38.93,15.79.93,16.1h9.89a13.8,13.8,0,0,0,2-.13h0c-.06-.45-2.17-16.68-10-16.61A6.37,6.37,0,0,0,348.49,490.62Z" fill="#f9bb41"/><path d="M354.4,492.74a4.54,4.54,0,0,0-4.85-.77l.55,14.75s1.6,2,4.79,0Z" fill="#2a425b"/><path d="M328,283.15s-3.19-18.86,12.5-19.48c12.32-.48,12.26,13.08,12.95,20.77s6.85,17.93,9.69,24.58-.28,15.92,2.91,25.54,8.38,18.55-5.26,22.36-4.36,16.76-15,16.76c-9.35,0-6-13.3-22.22-19-10.29-3.61-4.85-20.08,1.38-29.35s-3.81-15.43,2.35-25.89C331.93,291.7,328.82,290.18,328,283.15Z" fill="#fba319"/><path d="M347.67,438.49c-6-1.68-11.31-4.42-13.12-3.63a43.39,43.39,0,0,1-6.13,2.2l-.24,0a10.7,10.7,0,0,0,6.93-8.93c.69-6.93,2.91-46.39,2.91-46.39s3.74,52.48,9.27,56.49A4.09,4.09,0,0,1,347.67,438.49Z" fill="#0c6d6a"/><path d="M377,413.3a11.3,11.3,0,0,1-3.69,4.68s-13.16-11.21-15-24.23C358.37,393.74,369.91,416.93,377,413.3Z" fill="#0c6d6a"/></svg>